<svg width="21" height="30" viewBox="0 0 21 30" fill="none" xmlns="http://www.w3.org/2000/svg">
<path d="M19.95 29.9972C19.6932 29.998 19.445 29.9027 19.2524 29.7294L10.5 21.7888L1.7476 29.7294C1.59613 29.8668 1.40895 29.9565 1.20862 29.9877C1.00829 30.0189 0.803385 29.9904 0.618624 29.9054C0.433863 29.8205 0.277142 29.6828 0.167373 29.509C0.0576037 29.3352 -0.000524071 29.1327 3.56035e-06 28.9259V4.28532C0.0012195 3.14916 0.444109 2.05989 1.2315 1.25651C2.01889 0.453126 3.08647 0.00124064 4.2 0H16.8C17.9135 0.00124064 18.9811 0.453126 19.7685 1.25651C20.5559 2.05989 20.9988 3.14916 21 4.28532V28.9259C21 29.21 20.8894 29.4825 20.6925 29.6834C20.4956 29.8843 20.2285 29.9972 19.95 29.9972Z" fill="#C7CDD9"/>
</svg>
