<svg width="34" height="39" viewBox="0 0 34 39" fill="none" xmlns="http://www.w3.org/2000/svg">
<path fill-rule="evenodd" clip-rule="evenodd" d="M26.7257 9.06611C28.3335 5.62963 28.3056 2.79026 26.7568 0.507568L17.1316 17.211L19.5231 21.453L26.7257 9.06611ZM14.4788 25.5705C14.4259 25.8162 14.3233 26.065 14.1647 26.3169L13.6795 26.8487C13.2441 27.3245 12.8709 27.8968 12.1339 27.8035C11.6425 27.7413 11.2289 27.3246 10.8713 26.6559C10.411 26.149 9.87296 25.754 9.25719 25.4804C8.66009 25.216 7.99145 25.0636 7.24196 25.0294C4.89395 25.1507 2.86317 26.2454 1.3393 28.8888C-0.508004 31.8993 -0.296529 34.4432 1.07495 36.7197C2.13233 38.1067 3.40741 38.7162 4.85975 38.7194C7.07402 38.7225 8.87156 37.6589 10.2648 36.0044C11.148 34.9563 11.882 33.6968 12.6532 32.2942L15.9591 28.0709L15.8503 27.8843L15.8161 27.8284L14.4788 25.5705ZM9.46245 28.5063C8.66942 27.2934 7.33214 27.1659 6.05707 27.6138C5.0339 27.9745 4.15068 28.7396 3.4043 29.8902C2.77609 30.8605 2.28783 32.4248 2.41534 33.7839C2.65791 36.4118 4.99658 36.9094 7.0367 35.7618C7.9448 35.2518 8.66631 34.4961 9.18878 33.4698C9.5402 32.7763 9.83875 31.9552 9.95071 31.1249C10.072 30.2043 9.96626 29.2776 9.46245 28.5063Z" fill="white"/>
<path fill-rule="evenodd" clip-rule="evenodd" d="M6.61316 9.06611C5.00533 5.62963 5.03332 2.79026 6.58206 0.507568L18.2288 20.719C18.7699 21.4188 19.1058 22.1621 19.1493 22.9644C19.1897 23.7139 18.9752 23.9876 18.8539 24.6407C18.7544 25.188 18.8103 25.7447 19.1742 26.32L19.6593 26.8518C20.0947 27.3277 20.4679 27.8999 21.205 27.8066C21.6964 27.7444 22.11 27.3277 22.4676 26.659C22.9279 26.1521 23.4659 25.7571 24.0817 25.4835C24.6788 25.2191 25.3474 25.0667 26.0969 25.0325C28.4449 25.1538 30.4757 26.2485 31.9996 28.892C33.8469 31.9024 33.6354 34.4463 32.2639 36.7228C31.2065 38.1098 29.9315 38.7194 28.4791 38.7225C26.2648 38.7256 24.4673 37.662 23.0741 36.0075C22.1908 34.9594 21.4569 33.6999 20.6856 32.2973L17.8774 28.7085L17.5477 27.8688L6.61316 9.06611ZM16.9599 21.5929C17.5757 21.5929 18.0733 22.0905 18.0733 22.7063C18.0733 23.3221 17.5757 23.8196 16.9599 23.8196C16.3473 23.8196 15.8466 23.3221 15.8466 22.7063C15.8466 22.0905 16.3442 21.5929 16.9599 21.5929ZM23.8795 28.5063C24.6726 27.2934 26.0098 27.1659 27.2849 27.6138C28.3081 27.9745 29.1913 28.7396 29.9377 29.8902C30.5659 30.8605 31.0541 32.4248 30.9298 33.7808C30.6872 36.4087 28.3485 36.9063 26.3084 35.7587C25.4003 35.2487 24.6788 34.493 24.1563 33.4667C23.8049 32.7732 23.5063 31.9521 23.3944 31.1218C23.27 30.2043 23.3726 29.2776 23.8795 28.5063Z" fill="#AA935F"/>
</svg>
