<svg width="35" height="41" viewBox="0 0 35 41" fill="none" xmlns="http://www.w3.org/2000/svg">
<path d="M29.8718 27.3783C29.6304 27.1041 29.2744 26.9466 28.8955 26.9466H26.4065L26.8453 25.7861C27.1517 25.6635 27.4094 25.4267 27.5384 25.1037L28.6014 22.4343C28.8235 21.8781 28.6958 21.234 28.2763 20.7936L25.1542 17.5139C25.1383 17.4971 25.1321 17.4762 25.1368 17.4622L29.4686 4.80729C29.6934 4.14818 29.368 3.4451 28.7272 3.20639L27.0635 2.58684C26.4239 2.34832 25.7114 2.66501 25.4444 3.30913L20.3208 15.665C20.3139 15.6817 20.2949 15.6936 20.2721 15.6958L15.7469 16.1275C15.1396 16.1853 14.6166 16.587 14.4146 17.1511L13.4465 19.8555C13.3289 20.1834 13.3659 20.5305 13.5159 20.8231L11.2011 26.9466H6.68116C6.30212 26.9466 5.94629 27.1041 5.70481 27.3783C5.48172 27.6322 5.37936 27.9656 5.42425 28.2929L6.3203 34.8551C6.75237 38.0189 9.73423 40.4049 13.2561 40.4049H22.3207C25.8422 40.4049 28.8243 38.0189 29.2565 34.8551L30.1528 28.2929C30.1977 27.9652 30.0951 27.6318 29.8718 27.3783ZM15.2189 18.4285L15.5347 17.5461C15.5834 17.4102 15.7084 17.3164 15.8607 17.302L20.3858 16.8703C20.8459 16.8263 21.2411 16.539 21.4187 16.1171L26.5434 3.75814C26.562 3.71339 26.5999 3.68881 26.6297 3.68881C26.6355 3.68881 26.641 3.68977 26.646 3.6915L28.3096 4.31104C28.3402 4.32256 28.3615 4.37345 28.3429 4.42799L24.0103 17.086C23.8655 17.5165 23.9731 17.9911 24.2904 18.3243L27.4126 21.6041C27.5175 21.7143 27.5496 21.8662 27.4962 22.0003L27.1493 22.8713L26.4332 24.6693C26.4235 24.6943 26.3848 24.7108 26.3457 24.6962L26.0317 24.5793L14.9287 20.4445L14.6146 20.3275C14.5748 20.3126 14.5575 20.2761 14.5666 20.2507L15.2189 18.4285ZM14.5111 21.5491L25.6141 25.6839L25.1367 26.9466H24.3057L24.3307 26.8805C24.446 26.5752 24.2904 26.2353 23.9832 26.1208C23.6763 26.0067 23.3331 26.1608 23.2177 26.4657L23.036 26.9466H21.8724L22.1977 26.0862C22.313 25.7809 22.1574 25.441 21.8502 25.3265C21.5433 25.2117 21.2 25.3664 21.0847 25.6714L20.6026 26.9466H19.4386L20.0643 25.2916C20.1796 24.9862 20.024 24.6463 19.7167 24.5318C19.4099 24.4177 19.0666 24.5718 18.9513 24.8767L18.1689 26.9466H17.0049L17.9308 24.4972C18.0462 24.1919 17.8906 23.852 17.5833 23.7375C17.2768 23.6234 16.9334 23.7775 16.8179 24.0824L15.7351 26.9466H14.5714L15.7976 23.7029C15.9129 23.3976 15.7574 23.0577 15.4499 22.9432C15.1436 22.8287 14.8002 22.9832 14.6847 23.2881L13.3016 26.9466H12.4708L14.5111 21.5491ZM28.0786 34.6968C27.7257 37.2783 25.2505 39.2249 22.3207 39.2249H13.2561C10.3263 39.2249 7.851 37.2783 7.49827 34.6968L6.60435 28.1504C6.61518 28.1411 6.64014 28.1265 6.68116 28.1265H28.8955C28.9443 28.1265 28.9706 28.1473 28.9744 28.1373L28.0786 34.6968Z" fill="white"/>
<path d="M29.3897 27.6436H6.57402L6.18732 28.0303L6.96073 34.991L8.50756 38.0846L11.9879 39.6315L22.429 40.0182L25.136 39.2448L27.4562 37.6979L28.2296 35.7644L28.6163 32.284L29.3897 27.6436Z" fill="white" stroke="white"/>
<path d="M28.2296 21.8429L26.2961 25.3233L13.9214 20.6828L15.0816 16.8157L20.4955 16.0423L26.2961 3.28101L29.003 4.05442L24.7492 17.5892L28.2296 21.8429Z" fill="#AA935F" stroke="white"/>
<path d="M28.2296 21.8429L26.6828 25.3233L13.9214 20.6828L15.0816 16.8157L20.4955 16.0423L26.2961 3.28101L29.003 4.05442L24.7492 17.5892L28.2296 21.8429Z" fill="#AA935F" stroke="white"/>
<mask id="mask0_0_39" style="mask-type:alpha" maskUnits="userSpaceOnUse" x="0" y="0" width="35" height="27">
<path d="M0 0.187256H34.8036L30.9366 26.87H0V0.187256Z" fill="#AA935F"/>
</mask>
<g mask="url(#mask0_0_39)">
<path d="M29.8718 27.3783C29.6304 27.1041 29.2744 26.9466 28.8955 26.9466H26.4065L26.8453 25.7861C27.1517 25.6635 27.4094 25.4267 27.5384 25.1037L28.6014 22.4343C28.8235 21.8781 28.6958 21.234 28.2763 20.7936L25.1542 17.5139C25.1383 17.4971 25.1321 17.4762 25.1368 17.4622L29.4686 4.80729C29.6934 4.14818 29.368 3.4451 28.7272 3.20639L27.0635 2.58684C26.4239 2.34832 25.7114 2.66501 25.4444 3.30913L20.3208 15.665C20.3139 15.6817 20.2949 15.6936 20.2721 15.6958L15.7469 16.1275C15.1396 16.1853 14.6166 16.587 14.4146 17.1511L13.4465 19.8555C13.3289 20.1834 13.3659 20.5305 13.5159 20.8231L11.2011 26.9466H6.68116C6.30212 26.9466 5.94629 27.1041 5.70481 27.3783C5.48172 27.6322 5.37936 27.9656 5.42425 28.2929L6.3203 34.8551C6.75237 38.0189 9.73423 40.4049 13.2561 40.4049H22.3207C25.8422 40.4049 28.8243 38.0189 29.2565 34.8551L30.1528 28.2929C30.1977 27.9652 30.0951 27.6318 29.8718 27.3783ZM15.2189 18.4285L15.5347 17.5461C15.5834 17.4102 15.7084 17.3164 15.8607 17.302L20.3858 16.8703C20.8459 16.8263 21.2411 16.539 21.4187 16.1171L26.5434 3.75814C26.562 3.71339 26.5999 3.68881 26.6297 3.68881C26.6355 3.68881 26.641 3.68977 26.646 3.6915L28.3096 4.31104C28.3402 4.32256 28.3615 4.37345 28.3429 4.42799L24.0103 17.086C23.8655 17.5165 23.9731 17.9911 24.2904 18.3243L27.4126 21.6041C27.5175 21.7143 27.5496 21.8662 27.4962 22.0003L27.1493 22.8713L26.4332 24.6693C26.4235 24.6943 26.3848 24.7108 26.3457 24.6962L26.0317 24.5793L14.9287 20.4445L14.6146 20.3275C14.5748 20.3126 14.5575 20.2761 14.5666 20.2507L15.2189 18.4285ZM14.5111 21.5491L25.6141 25.6839L25.1367 26.9466H24.3057L24.3307 26.8805C24.446 26.5752 24.2904 26.2353 23.9832 26.1208C23.6763 26.0067 23.3331 26.1608 23.2177 26.4657L23.036 26.9466H21.8724L22.1977 26.0862C22.313 25.7809 22.1574 25.441 21.8502 25.3265C21.5433 25.2117 21.2 25.3664 21.0847 25.6714L20.6026 26.9466H19.4386L20.0642 25.2915C20.1796 24.9862 20.024 24.6463 19.7167 24.5318C19.4099 24.4177 19.0666 24.5718 18.9513 24.8767L18.1689 26.9466H17.0049L17.9308 24.4972C18.0462 24.1919 17.8906 23.852 17.5833 23.7375C17.2768 23.6234 16.9334 23.7775 16.8179 24.0824L15.7351 26.9466H14.5714L15.7976 23.7029C15.9129 23.3976 15.7574 23.0577 15.4499 22.9432C15.1436 22.8287 14.8002 22.9832 14.6847 23.2881L13.3016 26.9466H12.4708L14.5111 21.5491ZM28.0786 34.6968C27.7257 37.2783 25.2505 39.2249 22.3207 39.2249H13.2561C10.3263 39.2249 7.851 37.2783 7.49827 34.6968L6.60435 28.1504C6.61518 28.1411 6.64014 28.1265 6.68116 28.1265H28.8955C28.9443 28.1265 28.9706 28.1473 28.9744 28.1373L28.0786 34.6968Z" fill="#AA935F"/>
</g>
</svg>
