<svg width="51" height="51" viewBox="0 0 51 51" fill="none" xmlns="http://www.w3.org/2000/svg">
<path d="M18.7884 38.7448L16.4475 12.5177C16.3738 12.427 16.3341 12.3133 16.3351 12.1963C16.3354 12.1119 16.3565 12.0288 16.3968 11.9546L16.1515 9.24935C16.145 9.18119 16.1522 9.11241 16.1726 9.047C16.193 8.9816 16.2262 8.92089 16.2703 8.86842C16.3144 8.81595 16.3685 8.77276 16.4294 8.74139C16.4903 8.71002 16.5569 8.69109 16.6251 8.6857L16.6681 8.68361L33.589 8.6678C33.7264 8.66775 33.8581 8.72224 33.9552 8.81931C34.0523 8.91637 34.1068 9.04807 34.1067 9.18547C34.1075 9.21148 34.1061 9.23751 34.1026 9.2633L33.8603 12.0673C33.8693 12.1055 33.8741 12.1447 33.8745 12.184C33.8743 12.253 33.8603 12.3212 33.8334 12.3848L31.5703 38.7308L31.5661 38.7677C31.5271 39.4606 31.2358 40.1158 30.7472 40.6096C30.4872 40.8453 30.1756 41.0167 29.8375 41.1102L29.8336 45.2063C29.8331 45.4425 29.7389 45.669 29.5718 45.8361C29.4046 46.0033 29.1781 46.0975 28.9419 46.098L21.3437 46.1092C21.1051 46.108 20.8768 46.0128 20.7083 45.8443C20.5398 45.6757 20.4446 45.4475 20.4434 45.2089L20.4472 41.1128C20.2079 41.0313 19.9832 40.9119 19.7819 40.7591C19.2437 40.3439 18.9063 39.6909 18.7987 38.7591L18.7884 38.7448ZM31.3086 9.71238L31.3068 11.6703L32.8551 11.6689L33.029 9.70668L31.3086 9.71238ZM30.2746 11.6713L30.2764 9.71334L28.5233 9.71089L28.5214 11.6729L30.2848 11.6692L30.2746 11.6713ZM27.4851 11.6698L27.487 9.70776L25.7216 9.70941L25.7197 11.6714L27.4851 11.6698ZM24.6875 11.6724L24.6893 9.71037L22.928 9.71202L22.9262 11.674L24.6875 11.6724ZM21.8899 11.675L21.8856 9.71914L20.1243 9.72078L20.1224 11.6828L21.8837 11.6812L21.8899 11.675ZM19.0923 11.6776L19.1002 9.72174L17.2345 9.71734L17.4088 11.6792L19.0923 11.6776ZM32.7702 12.6991L17.502 12.7154L19.6241 36.4727L30.7286 36.4624L32.7702 12.6991ZM30.6002 37.9453L19.7579 37.9554L19.8187 38.6476C19.8939 39.2803 20.0963 39.7 20.4094 39.9434C20.8037 40.2038 21.2804 40.3098 21.7485 40.2412L21.8202 40.235L28.8102 40.2182C29.2502 40.2595 29.6894 40.1284 30.0352 39.8525C30.3372 39.5252 30.512 39.1007 30.5279 38.656L30.59 37.9555L30.6002 37.9453Z" fill="white"/>
<path d="M33.8452 12.1184L31.71 37.1633H18.5619L16.4187 12.1184H33.8452Z" fill="#AA935F"/>
</svg>
