<svg width="29" height="32" viewBox="0 0 29 32" fill="none" xmlns="http://www.w3.org/2000/svg">
<path d="M14.1123 0C8.26683 0 3.52808 4.7634 3.52808 10.6394C3.52808 12.6044 3.91072 14.634 5.00877 16.0969L14.1123 28.2246L23.2159 16.0969C24.2132 14.7682 24.6966 12.4193 24.6966 10.6394C24.6966 4.7634 19.9578 0 14.1123 0ZM14.1123 6.16207C16.5719 6.16207 18.5664 8.16699 18.5664 10.6393C18.5664 13.1118 16.5719 15.1166 14.1123 15.1166C11.6528 15.1166 9.65825 13.1118 9.65825 10.6394C9.65825 8.16699 11.6528 6.16207 14.1123 6.16207Z" fill="#C7CDD9"/>
<path d="M24.4446 19.7475H23.3735V21.6095H24.4446L26.2086 29.8907H2.01605L3.78009 21.6095H4.85111V19.7475H3.78009C3.2454 19.7475 2.73261 19.9437 2.35453 20.2929C1.97644 20.6421 1.76404 21.1157 1.76404 21.6095L2.94406e-06 29.8907C2.94406e-06 30.3846 0.212407 30.8582 0.590489 31.2074C0.968571 31.5566 1.48136 31.7528 2.01605 31.7528H26.2086C26.7433 31.7528 27.2561 31.5566 27.6342 31.2074C28.0122 30.8582 28.2246 30.3846 28.2246 29.8907L26.4606 21.6095C26.4606 21.1157 26.2482 20.6421 25.8701 20.2929C25.492 19.9437 24.9792 19.7475 24.4446 19.7475Z" fill="#C7CDD9"/>
</svg>
