<svg width="15" height="18" viewBox="0 0 15 18" fill="none" xmlns="http://www.w3.org/2000/svg">
<path fill-rule="evenodd" clip-rule="evenodd" d="M8.62237 17.5626C10.7145 15.6635 15 11.2484 15 6.94752C15 3.11051 11.6422 0 7.5 0C3.35786 0 0 3.11051 0 6.94752C0 11.2484 4.28552 15.6635 6.37761 17.5626C7.02008 18.1458 7.97991 18.1458 8.62237 17.5626ZM7.5 10.1897C9.05334 10.1897 10.3125 8.94549 10.3125 7.41069C10.3125 5.87589 9.05334 4.63168 7.5 4.63168C5.9467 4.63168 4.6875 5.87589 4.6875 7.41069C4.6875 8.94549 5.9467 10.1897 7.5 10.1897Z" fill="white"/>
</svg>
