<svg width="20" height="20" viewBox="0 0 20 20" fill="none" xmlns="http://www.w3.org/2000/svg">
<path d="M10 6.38298C11.0092 6.38298 11.8692 6.73759 12.58 7.44681C13.2907 8.15603 13.6461 9.00709 13.6461 10C13.6461 10.9929 13.2907 11.844 12.58 12.5532C11.8692 13.2624 11.0092 13.617 10 13.617C8.99076 13.617 8.13077 13.2624 7.42004 12.5532C6.70931 11.844 6.35394 10.9929 6.35394 10C6.35394 9.00709 6.70931 8.15603 7.42004 7.44681C8.13077 6.73759 8.99076 6.38298 10 6.38298ZM18.1237 9.10638H20V10.8936H18.1237C17.9247 12.7943 17.15 14.4184 15.7996 15.766C14.4492 17.1135 12.8216 17.9007 10.9168 18.1277V20H9.08316V18.1277C7.20682 17.9007 5.58635 17.1135 4.22175 15.766C2.85714 14.4184 2.07534 12.7943 1.87633 10.8936H0V9.10638H1.87633C2.07534 7.20567 2.85714 5.58156 4.22175 4.23404C5.58635 2.88652 7.20682 2.09929 9.08316 1.87234V0H10.9168V1.87234C12.8216 2.09929 14.4492 2.88652 15.7996 4.23404C17.15 5.58156 17.9247 7.20567 18.1237 9.10638ZM10.0213 16.3404C11.7839 16.3404 13.2836 15.7234 14.5203 14.4894C15.7569 13.2553 16.3753 11.7589 16.3753 10C16.3753 8.24113 15.7569 6.74468 14.5203 5.51064C13.2836 4.2766 11.7839 3.65957 10.0213 3.65957C8.25871 3.65957 6.75195 4.2766 5.50107 5.51064C4.25018 6.74468 3.62473 8.24113 3.62473 10C3.62473 11.7589 4.25018 13.2553 5.50107 14.4894C6.75195 15.7234 8.25871 16.3404 10.0213 16.3404Z" fill="white"/>
</svg>
