<svg width="19" height="19" viewBox="0 0 19 19" fill="none" xmlns="http://www.w3.org/2000/svg">
<path d="M18.1769 17.2907L18.3533 17.1141L18.1769 16.9374L14.701 13.457C15.7635 12.1195 16.3984 10.4257 16.3984 8.58412C16.3984 4.25776 12.8957 0.75 8.57422 0.75C4.25272 0.75 0.75 4.25776 0.75 8.58412C0.75 12.9105 4.25272 16.4182 8.57422 16.4182C10.4248 16.4182 12.1258 15.7747 13.4654 14.6992L16.9383 18.1767L17.1152 18.3538L17.2921 18.1767L18.1769 17.2907ZM14.6472 8.58412C14.6472 11.943 11.9279 14.6654 8.57422 14.6654C5.22052 14.6654 2.50125 11.943 2.50125 8.58412C2.50125 5.22524 5.22052 2.50288 8.57422 2.50288C11.9279 2.50288 14.6472 5.22524 14.6472 8.58412Z" fill="white" stroke="white" stroke-width="0.5"/>
</svg>
