<svg width="20" height="39" viewBox="0 0 20 39" fill="none" xmlns="http://www.w3.org/2000/svg">
<path fill-rule="evenodd" clip-rule="evenodd" d="M7.22011 17.6578C7.13275 18.1667 7.04851 18.6478 6.99235 19.0765C6.17806 25.4696 5.90038 30.7957 6.46821 34.1882C7.36986 39.5821 11.875 39.9522 12.8515 34.4226C13.4506 31.0301 13.1635 25.6084 12.318 19.0672C12.2213 18.3085 12.0279 17.3803 11.8875 16.4242L11.7003 10.4289C12.2059 10.145 12.6407 9.75282 12.9727 9.28102C13.3048 8.80923 13.5256 8.26986 13.619 7.70259H18.4736C19.5593 5.85218 19.6841 2.57695 18.4736 0.507568H0.86173C-0.348795 2.57695 -0.223999 5.84293 0.86173 7.70259H5.71631C5.80065 8.21705 5.99023 8.70912 6.27347 9.1487C6.5567 9.58829 6.92764 9.96617 7.36362 10.2592L7.22011 17.6609V17.6578ZM2.58392 3.51141C2.50854 3.51703 2.4328 3.50722 2.36143 3.48257C2.29007 3.45792 2.22462 3.41897 2.16919 3.36816C2.11376 3.31735 2.06954 3.25578 2.0393 3.18729C2.00906 3.1188 1.99346 3.04488 1.99346 2.97016C1.99346 2.89543 2.00906 2.82151 2.0393 2.75303C2.06954 2.68454 2.11376 2.62297 2.16919 2.57216C2.22462 2.52135 2.29007 2.4824 2.36143 2.45775C2.4328 2.4331 2.50854 2.42329 2.58392 2.42891H16.7514C16.8268 2.42329 16.9026 2.4331 16.9739 2.45775C17.0453 2.4824 17.1107 2.52135 17.1662 2.57216C17.2216 2.62297 17.2658 2.68454 17.296 2.75303C17.3263 2.82151 17.3419 2.89543 17.3419 2.97016C17.3419 3.04488 17.3263 3.1188 17.296 3.18729C17.2658 3.25578 17.2216 3.31735 17.1662 3.36816C17.1107 3.41897 17.0453 3.45792 16.9739 3.48257C16.9026 3.50722 16.8268 3.51703 16.7514 3.51141H2.58392ZM2.58392 5.79975C2.43829 5.79975 2.29862 5.74256 2.19564 5.64077C2.09267 5.53898 2.03482 5.40092 2.03482 5.25696C2.03482 5.11301 2.09267 4.97495 2.19564 4.87315C2.29862 4.77136 2.43829 4.71417 2.58392 4.71417H16.7514C16.8971 4.71417 17.0367 4.77136 17.1397 4.87315C17.2427 4.97495 17.3005 5.11301 17.3005 5.25696C17.3005 5.40092 17.2427 5.53898 17.1397 5.64077C17.0367 5.74256 16.8971 5.79975 16.7514 5.79975H2.58392Z" fill="white"/>
<path fill-rule="evenodd" clip-rule="evenodd" d="M13.6137 7.73412H5.72161C5.7198 7.72362 5.71803 7.71311 5.71631 7.70259H0.86173C-0.223999 5.84293 -0.348795 2.57695 0.86173 0.507568H18.4736C19.6841 2.57695 19.5593 5.85218 18.4736 7.70259H13.619C13.6173 7.71311 13.6155 7.72362 13.6137 7.73412ZM2.36143 3.48257C2.4328 3.50722 2.50854 3.51703 2.58392 3.51141H16.7514C16.8268 3.51703 16.9025 3.50722 16.9739 3.48257C17.0453 3.45792 17.1107 3.41897 17.1662 3.36816C17.2216 3.31735 17.2658 3.25578 17.296 3.18729C17.3263 3.1188 17.3419 3.04488 17.3419 2.97016C17.3419 2.89543 17.3263 2.82151 17.296 2.75303C17.2658 2.68454 17.2216 2.62297 17.1662 2.57216C17.1107 2.52135 17.0453 2.4824 16.9739 2.45775C16.9025 2.4331 16.8268 2.42329 16.7514 2.42891H2.58392C2.50854 2.42329 2.4328 2.4331 2.36143 2.45775C2.29007 2.4824 2.22462 2.52135 2.16919 2.57216C2.11376 2.62297 2.06954 2.68454 2.0393 2.75303C2.00906 2.82151 1.99345 2.89543 1.99345 2.97016C1.99345 3.04488 2.00906 3.1188 2.0393 3.18729C2.06954 3.25578 2.11376 3.31735 2.16919 3.36816C2.22462 3.41897 2.29007 3.45792 2.36143 3.48257ZM2.19564 5.64077C2.29862 5.74256 2.43829 5.79975 2.58392 5.79975H16.7514C16.8971 5.79975 17.0367 5.74256 17.1397 5.64077C17.2427 5.53898 17.3005 5.40092 17.3005 5.25696C17.3005 5.11301 17.2427 4.97495 17.1397 4.87315C17.0367 4.77136 16.8971 4.71417 16.7514 4.71417H2.58392C2.43829 4.71417 2.29862 4.77136 2.19564 4.87315C2.09267 4.97495 2.03482 5.11301 2.03482 5.25696C2.03482 5.40092 2.09267 5.53898 2.19564 5.64077Z" fill="#AA935F"/>
</svg>
