<svg width="11" height="12" viewBox="0 0 11 12" fill="none" xmlns="http://www.w3.org/2000/svg">
<path d="M8.55628 11.4972C8.46813 11.4975 8.38119 11.4757 8.30274 11.4335L5.49173 9.88845L2.68073 11.4335C2.58945 11.4839 2.48653 11.5064 2.38368 11.4984C2.28083 11.4905 2.18217 11.4524 2.09892 11.3885C2.01566 11.3246 1.95115 11.2374 1.91272 11.137C1.87429 11.0365 1.86348 10.9267 1.88152 10.8201L2.43269 7.56219L0.161842 5.24749C0.0909925 5.17327 0.0407328 5.08018 0.0164568 4.97823C-0.00781918 4.87629 -0.00519499 4.76932 0.0240478 4.66882C0.055994 4.56598 0.114759 4.47459 0.193673 4.40504C0.272587 4.33548 0.368491 4.29055 0.470502 4.27532L3.61222 3.79503L4.99567 0.826435C5.04081 0.728598 5.11127 0.646087 5.19901 0.588354C5.28674 0.530621 5.38819 0.5 5.49173 0.5C5.59527 0.5 5.69672 0.530621 5.78446 0.588354C5.87219 0.646087 5.94266 0.728598 5.98779 0.826435L7.38778 3.78924L10.5295 4.26954C10.6315 4.28476 10.7274 4.3297 10.8063 4.39925C10.8852 4.46881 10.944 4.56019 10.976 4.66303C11.0052 4.76354 11.0078 4.8705 10.9835 4.97245C10.9593 5.0744 10.909 5.16748 10.8382 5.24171L8.5673 7.5564L9.11848 10.8143C9.13816 10.9228 9.12786 11.0349 9.08879 11.1375C9.04972 11.24 8.98353 11.3287 8.89801 11.393C8.7982 11.4664 8.67803 11.5031 8.55628 11.4972ZM5.49173 8.66166C5.58009 8.65932 5.66749 8.68126 5.74527 8.72532L7.82321 9.88266L7.42637 7.44645C7.41097 7.35343 7.41749 7.25786 7.44535 7.16809C7.47321 7.07832 7.52157 6.99707 7.58621 6.93143L9.23974 5.23592L6.92479 4.87714C6.8399 4.8592 6.76024 4.82051 6.69225 4.76421C6.62425 4.70791 6.56986 4.63558 6.53346 4.55309L5.49173 2.38306L4.45001 4.55309C4.41013 4.63625 4.35173 4.70807 4.27976 4.76247C4.20779 4.81687 4.12439 4.85224 4.03662 4.86557L1.72168 5.22435L3.37521 6.91986C3.43985 6.9855 3.48821 7.06675 3.51607 7.15652C3.54393 7.24629 3.55045 7.34186 3.53505 7.43488L3.1382 9.84216L5.21614 8.68481C5.30419 8.65044 5.3996 8.64243 5.49173 8.66166Z" fill="#D3BA4C"/>
</svg>
