<svg width="26" height="30" viewBox="0 0 26 30" fill="none" xmlns="http://www.w3.org/2000/svg">
<path d="M25.4446 21.5635C23.8481 19.8337 21.9107 18.4533 19.7545 17.5091C17.5983 16.565 15.2699 16.0776 12.916 16.0776C10.5621 16.0776 8.23377 16.565 6.07754 17.5091C3.92131 18.4533 1.98395 19.8337 0.38748 21.5635C0.141 21.836 0.00312199 22.1895 0 22.557V28.5182C0.00522448 28.91 0.164542 29.284 0.443465 29.5592C0.722388 29.8344 1.09847 29.9887 1.49031 29.9887H24.3417C24.737 29.9887 25.116 29.8317 25.3955 29.5522C25.675 29.2727 25.832 28.8936 25.832 28.4984V22.5371C25.8241 22.1765 25.6866 21.8309 25.4446 21.5635Z" fill="#C7CDD9"/>
<path d="M12.916 14.0921C16.757 14.0921 19.8708 10.9783 19.8708 7.13727C19.8708 3.29626 16.757 0.182495 12.916 0.182495C9.07496 0.182495 5.9612 3.29626 5.9612 7.13727C5.9612 10.9783 9.07496 14.0921 12.916 14.0921Z" fill="#C7CDD9"/>
</svg>
